<?xml version="1.0" standalone="no"?>
<!DOCTYPE svg PUBLIC "-//W3C//DTD SVG 20010904//EN"
 "http://www.w3.org/TR/2001/REC-SVG-20010904/DTD/svg10.dtd">
<svg version="1.0" xmlns="http://www.w3.org/2000/svg"
 width="512.000000pt" height="512.000000pt" viewBox="0 0 512.000000 512.000000"
 preserveAspectRatio="xMidYMid meet">
<metadata>
Created by potrace 1.14, written by Peter Selinger 2001-2017
</metadata>
<g transform="translate(0.000000,512.000000) scale(0.100000,-0.100000)"
fill="#000000" stroke="none">
<path d="M1792 4803 c-7 -3 -76 -100 -153 -216 -78 -117 -147 -218 -153 -225
-9 -9 -62 -13 -187 -16 -191 -4 -241 -15 -364 -79 -89 -47 -202 -164 -247
-257 -64 -130 -67 -158 -70 -630 l-3 -423 -39 -4 c-92 -9 -187 -79 -238 -175
-23 -43 -23 -45 -26 -509 -3 -449 -2 -468 18 -521 38 -102 134 -182 238 -197
l47 -6 2 -280 c2 -395 6 -457 36 -537 69 -188 212 -328 399 -389 l73 -24 1440
0 1440 0 73 27 c194 70 334 213 393 398 25 79 30 151 32 520 l2 285 46 6 c95
14 182 78 226 167 l28 57 3 461 c3 446 2 463 -18 517 -39 104 -144 189 -246
199 l-39 4 -2 389 c-2 485 -4 508 -47 616 -54 131 -158 246 -282 311 -116 61
-159 70 -354 74 l-175 3 -23 28 c-12 15 -28 38 -35 50 -34 62 -232 350 -251
365 -19 16 -75 18 -776 17 -415 0 -761 -3 -768 -6z"/>
<path d="M41 4413 c-16 -8 -32 -24 -35 -36 -3 -12 -6 -590 -6 -1283 0 -1261 0
-1261 21 -1288 14 -18 30 -26 53 -26 41 0 64 17 74 55 4 17 7 593 7 1281 -1
1144 -2 1253 -17 1276 -21 32 -58 39 -97 21z"/>
<path d="M5014 4415 c-16 -7 -34 -23 -40 -36 -6 -16 -9 -452 -8 -1274 1 -687
2 -1258 3 -1267 3 -57 93 -78 130 -32 21 27 21 27 21 1290 0 923 -3 1270 -11
1288 -16 34 -57 47 -95 31z"/>
</g>
</svg>
